<?xml version="1.0" encoding="utf-8" ?>
<svg xmlns="http://www.w3.org/2000/svg" xmlns:xlink="http://www.w3.org/1999/xlink" width="2349" height="2048">
	<path fill="#1F1D1E" transform="scale(3.625 3.62478)" d="M186.026 312.223L191.763 312.185L191.726 316.896L186.296 316.864L186.026 312.223Z"/>
	<path fill="#1F1D1E" transform="scale(3.625 3.62478)" d="M199.08 312.132C200.956 312.258 202.853 312.199 204.733 312.188L204.687 316.954L199.007 316.764L199.08 312.132Z"/>
	<path fill="#1F1D1E" transform="scale(3.625 3.62478)" d="M186.104 251.183C188.028 251.236 189.959 251.209 191.884 251.21L191.755 255.948L186.207 255.757C186.091 254.244 186.127 252.7 186.104 251.183Z"/>
	<path fill="#1F1D1E" transform="scale(3.625 3.62478)" d="M172.989 251.115Q175.876 251.198 178.765 251.174L178.713 255.902C176.814 255.922 174.948 255.882 173.053 255.754L172.989 251.115Z"/>
	<path fill="#1F1D1E" transform="scale(3.625 3.62478)" d="M199.08 251.16C200.966 251.248 202.87 251.206 204.759 251.213L204.722 256.024L199.099 255.955C199.022 254.365 199.074 252.753 199.08 251.16Z"/>
	<path fill="#1F1D1E" transform="scale(3.625 3.62478)" d="M520.114 272.047C522.039 272.165 523.913 272.19 525.84 272.113L525.791 277.094L520.19 277.009C520.047 275.317 519.953 273.744 520.114 272.047Z"/>
	<path fill="#1F1D1E" transform="scale(3.625 3.62478)" d="M494.047 272.049Q496.974 272.107 499.901 272.063L499.818 277.078L494.253 276.986C494.085 275.329 494.043 273.713 494.047 272.049Z"/>
	<path fill="#1F1D1E" transform="scale(3.625 3.62478)" d="M454.993 143.932C456.97 144.018 458.933 144.029 460.912 144.003L460.809 149.01L455.238 148.995C455.042 147.32 455.046 145.616 454.993 143.932Z"/>
	<path fill="#1F1D1E" transform="scale(3.625 3.62478)" d="M507.133 271.731C509.101 272.012 511.056 272.003 513.04 272.014C513.013 273.415 513.288 275.999 512.496 277.076C510.678 277.046 508.842 277.16 507.024 277.222C506.971 275.404 506.809 273.524 507.133 271.731Z"/>
	<path fill="#1F1D1E" transform="scale(3.625 3.62478)" d="M513.312 312.009C515.539 312.163 517.726 312.158 519.957 312.099C519.873 313.717 520.012 315.33 519.705 316.929C517.524 316.988 515.335 316.932 513.154 316.909C513.008 315.333 512.744 313.512 513.312 312.009Z"/>
	<path fill="#1F1D1E" transform="scale(3.625 3.62478)" d="M500.307 312.03Q503.607 312.09 506.907 312.091C506.922 313.736 506.982 315.384 506.768 317.019L500.259 316.964C500.153 315.331 499.897 313.629 500.307 312.03Z"/>
	<path fill="#1F1D1E" transform="scale(3.625 3.62478)" d="M371.087 98.0248C373.432 98.1119 375.726 98.1311 378.068 97.9915C377.991 99.6465 377.991 101.311 377.964 102.968L371.203 102.913L371.087 98.0248Z"/>
	<path fill="#1F1D1E" transform="scale(3.625 3.62478)" d="M340.106 128.943C342.358 129.161 344.622 129.072 346.881 129.031L346.823 134.048L340.164 133.969C340.105 132.297 340.122 130.616 340.106 128.943Z"/>
	<path fill="#1F1D1E" transform="scale(3.625 3.62478)" d="M212.962 152.976C215.266 153.076 217.572 153.052 219.878 153.044L219.82 157.995L213.149 157.979C213 156.317 212.995 154.644 212.962 152.976Z"/>
	<path fill="#1F1D1E" transform="scale(3.625 3.62478)" d="M353.122 129.007C355.385 129.13 357.617 129.122 359.883 129.063L359.814 134.124L353.161 134.103L353.122 129.007Z"/>
	<path fill="#1F1D1E" transform="scale(3.625 3.62478)" d="M226.008 153.056C228.368 153.176 230.747 153.109 233.111 153.1C232.99 154.729 232.988 156.344 232.993 157.977Q229.618 158.046 226.242 158.026C226.129 156.373 226.085 154.71 226.008 153.056Z"/>
	<path fill="#1F1D1E" transform="scale(3.625 3.62478)" d="M357.994 98.0822Q361.556 98.1192 365.116 98.0082L364.976 102.998L358.075 102.845C357.959 101.259 357.986 99.6715 357.994 98.0822Z"/>
	<path fill="#1F1D1E" transform="scale(3.625 3.62478)" d="M440.946 143.928C443.24 144.029 445.51 144.149 447.803 143.973L447.74 148.943C445.582 149.239 443.205 149.103 441.017 149.156C441.11 147.415 441.007 145.669 440.946 143.928Z"/>
	<path fill="#1F1D1E" transform="scale(3.625 3.62478)" d="M326.993 129.014Q330.484 129.1 333.974 129C333.873 130.719 333.924 132.472 333.915 134.196L327.185 134.113C327.004 132.391 326.946 130.744 326.993 129.014Z"/>
	<path fill="#1F1D1E" transform="scale(3.625 3.62478)" d="M542.706 349.753C544.199 350.374 545.568 350.769 547.16 351.053C545.653 356.266 543.047 361.237 540.742 366.141L536.65 363.754C538.918 359.236 540.755 354.418 542.706 349.753Z"/>
	<path fill="#1F1D1E" transform="scale(3.625 3.62478)" d="M210.292 110.959C211.684 111.292 212.965 113.264 213.878 114.329C209.437 117.753 205.817 122.063 201.569 125.7C200.351 124.587 199.082 123.634 197.74 122.677C201.728 118.747 205.743 114.233 210.292 110.959Z"/>
	<path fill="#1F1D1E" transform="scale(3.625 3.62478)" d="M185.891 263.092C192.173 263.099 198.451 263.203 204.733 263.128L204.701 267.894C198.51 267.857 192.308 268.049 186.12 267.889L185.891 263.092Z"/>
	<path fill="#1F1D1E" transform="scale(3.625 3.62478)" d="M292.091 120.895C293.963 120.929 295.818 120.792 297.401 121.942C298.53 124.054 297.906 135.842 297.768 138.843C296.383 139.09 294.68 138.894 293.258 138.867C293.278 135.75 293.289 132.584 292.99 129.481C292.72 126.67 291.799 123.708 292.091 120.895Z"/>
	<path fill="#1F1D1E" transform="scale(3.625 3.62478)" d="M494.112 261.023L512.875 261.034Q512.854 263.55 512.757 266.065L494.164 266.031C494.061 264.356 493.912 262.696 494.112 261.023Z"/>
	<path fill="#1F1D1E" transform="scale(3.625 3.62478)" d="M465.833 184.06C467.786 184.073 470.535 183.79 472.326 184.587C473.641 187.859 473.137 198.177 472.931 202.043L468.139 201.941C468.033 197.868 468.483 193.551 467.769 189.545C467.282 189.268 466.795 188.97 466.405 188.562C465.386 187.496 465.772 185.422 465.833 184.06Z"/>
	<path fill="#1F1D1E" transform="scale(3.625 3.62478)" d="M340.027 140.03C346.601 139.863 353.207 140.158 359.79 140.052C359.811 141.6 359.992 143.303 359.618 144.811L359.141 145.02C352.778 144.799 346.369 145.117 339.997 145.021C339.945 143.351 339.972 141.7 340.027 140.03Z"/>
	<path fill="#1F1D1E" transform="scale(3.625 3.62478)" d="M264.919 120.887C266.967 120.92 269.582 120.701 271.431 121.644C272.606 124.131 272.048 135.546 272.159 138.987C270.461 139.028 268.737 138.919 267.038 138.872C267.024 134.833 267.237 130.732 266.705 126.726C266.325 126.424 265.931 126.117 265.599 125.764C264.385 124.474 264.815 122.495 264.919 120.887Z"/>
	<path fill="#ADACAD" transform="scale(3.625 3.62478)" d="M503.646 340.028C504.438 340.098 505.185 340.327 505.929 340.608C507.523 341.21 508.914 342.151 509.542 343.796C510.075 345.19 509.916 346.669 509.305 348.008C508.291 350.231 506.566 351.018 504.443 351.885C503.618 351.958 503.022 351.855 502.248 351.54C500.081 350.656 499.149 348.376 498.267 346.388C498.46 345.31 498.658 344.256 499.148 343.266C500.096 341.353 501.743 340.671 503.646 340.028Z"/>
	<path fill="#ADACAD" transform="scale(3.625 3.62478)" d="M319.963 95.5152C321.029 95.4444 322.112 95.3794 323.145 95.7131C324.572 96.1746 325.889 97.2213 326.583 98.5593C327.355 100.049 327.387 101.729 326.804 103.286C326.024 105.374 324.461 106.263 322.566 107.156C321.807 107.273 320.921 107.233 320.17 107.081C318.899 106.823 317.608 105.97 316.876 104.901C315.931 103.522 315.719 101.748 316.054 100.137C316.551 97.7449 318.015 96.7189 319.963 95.5152Z"/>
	<path fill="#EDD666" transform="scale(3.625 3.62478)" d="M200.319 347.745C201.484 347.901 202.725 348.097 203.763 348.669C205.192 349.456 206.351 350.786 206.791 352.37C207.233 353.958 206.966 355.613 206.095 357.005C204.883 358.942 203.189 359.528 201.101 360.053C200.102 360.049 198.9 359.946 197.98 359.544C196.536 358.914 195.415 357.542 194.937 356.061C194.383 354.341 194.608 352.505 195.506 350.945C196.626 348.998 198.281 348.326 200.319 347.745Z"/>
	<path fill="#EDD666" transform="scale(3.625 3.62478)" d="M472.369 75.9386C473.62 75.8471 475.101 75.6238 476.313 76.0008C478.028 76.5343 479.592 77.8578 480.355 79.4859C480.995 80.8498 481.114 82.3809 480.599 83.804C479.877 85.7984 478.377 86.8708 476.538 87.7509C476.332 87.8017 476.126 87.8524 475.919 87.8942C474.339 88.2121 472.525 87.9994 471.184 87.057C469.25 85.6986 468.738 83.6717 468.327 81.4938C469.199 78.8224 469.922 77.4271 472.369 75.9386Z"/>
	<path fill="#EDD666" transform="scale(3.625 3.62478)" d="M508.853 220.868C509.935 220.793 510.95 220.763 512.008 221.048C513.699 221.504 515.196 222.653 516.007 224.215C516.789 225.723 516.873 227.432 516.303 229.023C515.549 231.132 514.017 232.122 512.087 233.002C510.877 233.149 509.724 233.11 508.545 232.77C506.927 232.302 505.612 231.232 504.874 229.712C504.142 228.205 504.108 226.391 504.71 224.835C505.491 222.818 506.933 221.716 508.853 220.868Z"/>
	<path fill="#EDD666" transform="scale(3.625 3.62478)" d="M247.035 218.92C247.882 218.844 248.625 218.857 249.455 219.07C251.185 219.513 252.663 220.464 253.544 222.05Q253.7 222.332 253.827 222.628Q253.953 222.924 254.048 223.232Q254.143 223.54 254.205 223.856Q254.268 224.172 254.297 224.492Q254.327 224.813 254.323 225.135Q254.319 225.457 254.281 225.777Q254.244 226.097 254.173 226.411Q254.103 226.726 254 227.031C253.272 229.264 251.703 230.368 249.664 231.33C248.332 231.391 246.818 231.455 245.566 230.93C244.068 230.303 242.829 228.918 242.271 227.407C241.661 225.757 241.724 223.844 242.556 222.28C243.556 220.399 245.07 219.552 247.035 218.92Z"/>
	<path fill="#1F1D1E" transform="scale(3.625 3.62478)" d="M191.064 130.2C192.519 130.481 193.862 132.105 194.909 133.098C187.285 142.361 178.806 152.193 173.658 163.105C172.154 162.35 170.779 161.347 169.384 160.41C173.654 152.104 184.396 136.659 191.064 130.2Z"/>
	<path fill="#1F1D1E" transform="scale(3.625 3.62478)" d="M455.031 184.167C456.157 184.077 457.259 184.021 458.357 184.349C459.951 184.825 461.257 186.043 462.009 187.508C463.401 190.22 463.328 194.642 462.331 197.505C461.472 199.972 460.197 200.965 457.928 201.99C456.624 202.076 455.381 202.056 454.146 201.569C452.59 200.954 451.39 199.662 450.733 198.141C449.543 195.391 449.623 190.67 450.776 187.917C451.64 185.856 453.05 185.022 455.031 184.167Z"/>
	<path fill="#1F1D1E" transform="scale(3.625 3.62478)" d="M497.28 184.117C498.482 184.055 499.569 184.094 500.721 184.482C502.302 185.014 503.475 186.191 504.164 187.692C505.757 191.16 505.074 196.106 503.795 199.565C502.685 200.486 501.691 201.202 500.366 201.815C498.923 201.961 497.454 202.103 496.074 201.559C494.486 200.933 493.278 199.494 492.666 197.933C491.567 195.133 491.656 190.452 492.914 187.746C493.858 185.715 495.289 184.893 497.28 184.117ZM497.586 188.971C496.751 190.698 496.411 193.849 497.07 195.69C497.358 196.494 497.554 196.835 498.369 197.167C498.664 197.287 499.069 197.34 499.374 197.402C500.185 195.672 500.492 192.381 499.877 190.543C499.644 189.844 499.412 189.368 498.685 189.093C498.402 188.986 497.87 188.991 497.586 188.971Z"/>
	<path fill="#1F1D1E" transform="scale(3.625 3.62478)" d="M253.78 121.234C254.782 121.133 255.741 121.063 256.735 121.28C258.613 121.69 260.121 122.972 261.054 124.626C262.526 127.234 262.619 131.48 261.68 134.276C260.867 136.699 259.548 137.716 257.36 138.806C256.22 138.892 255.102 138.968 253.975 138.72C251.722 138.223 250.591 136.785 249.372 134.99C248.898 131.465 248.906 128.063 249.666 124.586C250.874 123.014 252.018 122.096 253.78 121.234Z"/>
	<path fill="#1F1D1E" transform="scale(3.625 3.62478)" d="M279.736 121.197C282.294 120.948 283.831 121.486 285.976 122.753C286.373 123.389 286.778 124.038 287.071 124.73C288.294 127.612 288.454 132.233 287.293 135.128C286.481 137.151 285.188 138.031 283.253 138.879C281.976 138.949 280.733 138.991 279.489 138.637C277.876 138.179 276.518 136.874 275.756 135.409C274.375 132.754 274.386 128.405 275.386 125.602C276.229 123.241 277.505 122.211 279.736 121.197Z"/>
	<path fill="#1F1D1E" transform="scale(3.625 3.62478)" d="M481.013 184.177C482.397 184.106 483.681 184.124 484.979 184.671C486.602 185.354 487.843 186.722 488.5 188.341C489.582 191.009 489.48 195.295 488.377 197.925C487.432 200.176 485.974 201.181 483.773 202.064C482.711 202.057 481.677 202.041 480.66 201.699C478.781 201.065 477.316 199.548 476.53 197.752C475.328 195.004 475.345 190.92 476.515 188.169C477.476 185.908 478.778 185.028 481.013 184.177Z"/>
	<path fill="#1F1D1E" transform="scale(3.625 3.62478)" d="M530.664 374.695C532.119 375.445 533.441 376.366 534.789 377.289C533.375 380.005 531.513 382.639 529.85 385.213Q521.213 398.756 510.657 410.863C508.901 410.964 507.627 409.475 506.382 408.407C509.126 404.71 512.314 401.301 515.152 397.664Q523.737 386.739 530.664 374.695Z"/>
	<path fill="#1F1D1E" transform="scale(3.625 3.62478)" d="M153.871 239.061C155.454 239.468 157.038 239.771 158.645 240.061C151.515 290.448 162.383 338.189 191.097 380.308Q197.562 389.786 205.154 398.388C206.675 400.145 213.985 407.353 214.583 408.553C214.441 409.408 214.218 409.612 213.694 410.28C213.041 410.933 212.563 411.457 211.658 411.754C208.74 410.874 199.704 399.764 197.332 396.8C189.512 387.026 182.364 376.94 176.277 365.972Q173.733 361.288 171.439 356.476Q169.145 351.663 167.109 346.737Q165.072 341.811 163.298 336.784Q161.524 331.758 160.017 326.644Q158.51 321.531 157.276 316.345Q156.041 311.16 155.081 305.916Q154.121 300.673 153.439 295.386Q152.757 290.099 152.355 284.784C151.338 269.786 152.23 253.999 153.871 239.061Z"/>
	<path fill="#1F1D1E" transform="scale(3.625 3.62478)" d="M352.447 69.7425C364.625 69.7073 376.925 71.1562 388.93 73.0968C388.854 74.7159 388.611 76.3177 388.398 77.9233Q380.946 76.5444 373.411 75.7275Q365.876 74.9106 358.301 74.6603Q350.727 74.41 343.154 74.7277Q335.582 75.0455 328.055 75.9294Q325.674 76.2176 323.3 76.5644Q320.926 76.9111 318.562 77.316Q316.198 77.721 313.844 78.184Q311.49 78.647 309.149 79.1678Q306.807 79.6885 304.479 80.2667Q302.151 80.8448 299.838 81.4801Q297.525 82.1153 295.228 82.8072Q292.932 83.4991 290.652 84.2473Q288.373 84.9955 286.113 85.7996Q283.853 86.6036 281.614 87.4629Q279.374 88.3223 277.157 89.2365Q274.939 90.1506 272.745 91.119Q270.55 92.0874 268.38 93.1095Q266.21 94.1316 264.066 95.2068Q261.921 96.2819 259.804 97.4095Q257.687 98.537 255.598 99.7163Q253.51 100.896 251.45 102.126Q249.391 103.356 247.363 104.637Q245.335 105.917 243.339 107.247Q241.343 108.577 239.38 109.956Q237.417 111.335 235.489 112.761Q233.56 114.188 231.668 115.662Q229.775 117.135 227.919 118.655Q226.064 120.174 224.246 121.739Q222.428 123.304 220.649 124.913Q218.87 126.522 217.132 128.175Q215.393 129.827 213.696 131.521Q211.998 133.216 210.343 134.952Q208.687 136.688 207.075 138.464Q205.463 140.24 203.895 142.055Q202.327 143.87 200.805 145.723Q199.282 147.576 197.805 149.466C192.686 156.664 187.751 163.72 183.191 171.295L179.038 168.793C185.006 157.548 193.044 147.182 201.362 137.589Q202.76 135.999 204.192 134.439Q205.623 132.879 207.087 131.349Q208.552 129.82 210.048 128.322Q211.544 126.824 213.072 125.358Q214.6 123.892 216.158 122.459Q217.717 121.025 219.305 119.625Q220.894 118.225 222.512 116.859Q224.13 115.493 225.776 114.162Q227.422 112.83 229.097 111.534Q230.771 110.238 232.472 108.977Q234.173 107.717 235.901 106.492Q237.629 105.268 239.382 104.081Q241.135 102.894 242.913 101.744Q244.691 100.594 246.493 99.4817Q248.295 98.3697 250.12 97.2961Q251.945 96.2225 253.793 95.1878Q255.64 94.1531 257.509 93.1578Q259.378 92.1625 261.268 91.2069Q263.157 90.2514 265.067 89.3362Q266.976 88.4209 268.904 87.5463Q270.833 86.6716 272.779 85.8381Q274.726 85.0045 276.69 84.2123Q278.653 83.4202 280.633 82.6698Q282.613 81.9194 284.609 81.2111Q286.605 80.5028 288.615 79.837Q290.625 79.1711 292.648 78.548Q294.672 77.9249 296.709 77.3448Q298.745 76.7647 300.794 76.2278Q302.842 75.691 304.901 75.1977Q306.96 74.7043 309.03 74.2547Q311.099 73.8051 313.177 73.3994Q315.256 72.9938 317.342 72.6322Q327.683 70.8173 338.166 70.2485C342.924 69.993 347.693 70.0805 352.447 69.7425Z"/>
	<path fill="#1F1D1E" transform="scale(3.625 3.62478)" d="M508.2 145.467C511.129 147.981 514.327 153.38 516.499 156.608Q519.339 160.788 521.968 165.103Q524.598 169.419 527.01 173.859Q529.423 178.299 531.612 182.853Q533.802 187.407 535.764 192.064Q537.725 196.721 539.454 201.469Q541.182 206.217 542.674 211.045Q544.165 215.873 545.416 220.769Q546.666 225.665 547.673 230.617Q548.144 233.045 548.555 235.483Q548.966 237.922 549.318 240.369Q549.669 242.817 549.96 245.273Q550.252 247.728 550.483 250.191Q550.715 252.653 550.886 255.12Q551.057 257.586 551.168 260.057Q551.278 262.527 551.329 265Q551.379 267.472 551.369 269.945Q551.359 272.418 551.288 274.89Q551.217 277.361 551.086 279.831Q550.955 282.3 550.764 284.766Q550.572 287.231 550.321 289.691Q550.069 292.151 549.757 294.604Q549.446 297.058 549.074 299.502Q548.702 301.947 548.271 304.382Q547.84 306.817 547.349 309.241Q546.859 311.665 546.309 314.076Q545.759 316.487 545.15 318.884Q544.542 321.28 543.875 323.662Q543.208 326.043 542.483 328.407Q541.758 330.772 540.975 333.117Q540.193 335.463 539.353 337.789Q538.513 340.115 537.617 342.42Q536.72 344.725 535.768 347.007Q534.815 349.289 533.807 351.547Q532.799 353.805 531.736 356.038Q530.674 358.271 529.556 360.477Q528.439 362.684 527.268 364.862Q526.098 367.04 524.874 369.189Q523.65 371.338 522.374 373.457Q521.098 375.575 519.771 377.662Q518.444 379.748 517.066 381.802C515.124 384.672 502.259 402.642 499.913 403.095L499.239 402.479L496.753 400.272C498.609 397.049 501.746 393.986 504.13 391.085Q508.882 385.224 513.145 378.999Q514.71 376.688 516.208 374.333Q517.706 371.978 519.137 369.581Q520.568 367.185 521.929 364.749Q523.291 362.312 524.583 359.838Q525.875 357.364 527.096 354.854Q528.317 352.344 529.465 349.801Q530.614 347.257 531.69 344.682Q532.766 342.107 533.769 339.502Q534.771 336.897 535.698 334.264Q536.626 331.632 537.479 328.974Q538.331 326.317 539.107 323.636Q539.883 320.955 540.583 318.253Q541.283 315.551 541.905 312.831Q542.528 310.11 543.072 307.373Q543.617 304.635 544.083 301.884Q544.55 299.132 544.938 296.368Q545.221 294.314 545.46 292.255Q545.7 290.195 545.895 288.131Q546.091 286.067 546.243 283.999Q546.394 281.932 546.502 279.861Q546.61 277.791 546.674 275.718Q546.738 273.646 546.758 271.573Q546.778 269.5 546.754 267.426Q546.73 265.353 546.662 263.281Q546.594 261.209 546.482 259.139Q546.371 257.068 546.215 255.001Q546.059 252.933 545.86 250.87Q545.66 248.806 545.417 246.747Q545.173 244.688 544.886 242.635Q544.599 240.581 544.269 238.535Q543.939 236.488 543.565 234.448Q543.191 232.409 542.774 230.378Q542.358 228.347 541.898 226.325Q541.438 224.304 540.935 222.292Q540.432 220.281 539.887 218.28Q539.342 216.28 538.755 214.292Q538.167 212.303 537.538 210.328Q536.908 208.352 536.237 206.391Q535.566 204.429 534.853 202.482Q534.14 200.535 533.386 198.604Q532.632 196.672 531.838 194.757Q531.043 192.842 530.208 190.944Q529.373 189.047 528.498 187.167Q527.622 185.287 526.708 183.427Q525.793 181.566 524.839 179.725Q523.885 177.884 522.892 176.064Q521.899 174.244 520.868 172.445Q519.836 170.646 518.767 168.87C514.496 161.699 509.488 154.952 504.491 148.278L508.2 145.467Z"/>
	<path fill="#1F1D1E" transform="scale(3.625 3.62478)" d="M415.327 84.2068C419.69 83.8918 423.743 83.944 427.824 85.6615Q428.311 85.8678 428.788 86.0979Q429.264 86.3281 429.729 86.5816Q430.193 86.835 430.644 87.1112Q431.096 87.3873 431.533 87.6855Q431.97 87.9837 432.392 88.3031Q432.813 88.6226 433.219 88.9625Q433.624 89.3024 434.012 89.662Q434.4 90.0216 434.77 90.4Q435.14 90.7784 435.491 91.1746Q435.841 91.5709 436.172 91.984Q436.502 92.3971 436.812 92.826Q437.122 93.255 437.41 93.6988Q437.698 94.1425 437.964 94.6001Q438.229 95.0575 438.472 95.5276Q438.715 95.9977 438.934 96.4793Q439.153 96.9608 439.348 97.4526L482.151 97.5005C489.413 97.4866 496.839 97.1569 504.081 97.4766C504.99 97.5167 505.752 97.7314 506.34 98.4632C507.239 99.5813 506.983 127.995 506.583 131.774L506.396 131.724C506.422 132.041 506.518 132.216 506.325 132.481C505.618 132.815 505.029 132.993 504.249 133.079C502.369 133.287 500.438 133.008 498.547 133.029C496.488 133.053 494.322 133.384 492.277 133.232C491.519 133.175 490.722 132.925 490.152 132.407C488.485 130.892 489.116 117.972 489.066 115.203C486.749 115.37 484.348 115.235 482.022 115.227L482.017 119.659C481.935 124.017 482.279 128.411 481.99 132.755C476.642 133.427 470.539 133.386 465.179 132.88C464.659 127.001 464.895 120.966 464.873 115.063C456.036 114.864 447.178 115.393 438.354 115.108C435.191 120.277 430.681 124.237 424.777 125.919Q424.27 126.06 423.756 126.176Q423.243 126.292 422.724 126.382Q422.205 126.472 421.683 126.536Q421.16 126.601 420.635 126.639Q420.11 126.677 419.583 126.689Q419.057 126.701 418.531 126.686Q418.004 126.672 417.479 126.632Q416.955 126.591 416.432 126.525Q415.91 126.458 415.392 126.366Q414.873 126.273 414.36 126.155Q413.847 126.037 413.341 125.893Q412.834 125.75 412.335 125.581Q411.836 125.413 411.347 125.22Q410.857 125.026 410.377 124.809Q409.898 124.592 409.43 124.351Q408.962 124.11 408.506 123.846C403.797 121.133 400.056 116.52 398.708 111.225C397.283 105.624 397.852 99.0603 400.831 94.0509C404.123 88.5139 409.253 85.7266 415.327 84.2068Z"/>
	<path fill="#EDD666" transform="scale(3.625 3.62478)" d="M419.283 88.6856C424.888 89.4075 429.957 91.3938 432.929 96.5143C433.823 98.0537 434.534 100.152 435.721 101.471C436.468 102.302 437.424 102.382 438.482 102.458C445.344 102.953 452.584 102.504 459.484 102.499L502.029 102.505C502.171 111.081 502.066 119.673 502.064 128.25L493.966 128.218C493.888 123.995 494.686 115.68 493.614 112.028C493.45 111.469 493.283 110.994 492.752 110.706C491.318 109.928 480.691 109.914 479.006 110.591C478.003 110.993 477.842 111.679 477.499 112.603L477.498 128.246Q473.501 128.245 469.505 128.182C469.467 123.176 470.062 117.673 469.507 112.73C469.461 112.329 469.408 111.336 469.03 111.096C466.942 109.774 440.174 109.858 436.602 110.475C434.44 110.848 433.493 113.194 432.305 114.835C429.743 118.374 426.228 120.975 421.828 121.621C417.403 122.27 412.745 120.948 409.186 118.274Q408.547 117.792 407.959 117.25Q407.37 116.708 406.838 116.111Q406.306 115.513 405.835 114.866Q405.365 114.219 404.96 113.528Q404.556 112.838 404.222 112.111Q403.888 111.384 403.627 110.628Q403.366 109.872 403.18 109.093Q402.995 108.315 402.888 107.522Q402.782 106.715 402.758 105.902Q402.733 105.089 402.789 104.277Q402.845 103.465 402.982 102.663Q403.118 101.861 403.334 101.076Q403.55 100.292 403.842 99.5326Q404.135 98.7734 404.502 98.047Q404.869 97.3207 405.306 96.6344Q405.743 95.9481 406.246 95.3086C409.613 90.9756 414.017 89.3753 419.283 88.6856Z"/>
	<path fill="#E7C061" transform="scale(3.625 3.62478)" d="M416.729 96.7859C418.169 96.6976 419.574 96.6895 420.964 97.1356Q421.349 97.26 421.719 97.4226Q422.09 97.5851 422.442 97.7842Q422.794 97.9832 423.124 98.2167Q423.454 98.4502 423.759 98.7158Q424.064 98.9814 424.341 99.2764Q424.617 99.5714 424.863 99.8927Q425.108 100.214 425.32 100.559Q425.532 100.903 425.708 101.267Q425.879 101.626 426.012 102.001Q426.145 102.376 426.239 102.763Q426.333 103.149 426.387 103.543Q426.442 103.938 426.455 104.335Q426.469 104.733 426.442 105.13Q426.414 105.527 426.347 105.919Q426.279 106.311 426.172 106.694Q426.065 107.077 425.919 107.447C424.928 109.939 423.141 111.274 420.779 112.31C419.32 112.506 418.006 112.66 416.554 112.259C414.441 111.675 412.649 110.353 411.61 108.404Q411.422 108.051 411.271 107.681Q411.119 107.31 411.006 106.927Q410.892 106.543 410.818 106.15Q410.744 105.757 410.709 105.359Q410.675 104.96 410.681 104.56Q410.687 104.16 410.733 103.763Q410.779 103.365 410.865 102.975Q410.95 102.584 411.075 102.204C412.053 99.2956 414.109 98.0043 416.729 96.7859Z"/>
	<path fill="#1F1D1E" transform="scale(3.625 3.62478)" d="M222.661 170.339C224.083 170.056 226.134 170.534 227.564 170.828Q228.072 170.928 228.575 171.053Q229.077 171.179 229.573 171.329Q230.069 171.479 230.556 171.654Q231.044 171.828 231.522 172.027Q232 172.226 232.468 172.448Q232.936 172.671 233.392 172.916Q233.848 173.161 234.291 173.429Q234.734 173.697 235.164 173.987Q235.593 174.276 236.007 174.587Q236.422 174.897 236.82 175.228Q237.219 175.559 237.6 175.91Q237.981 176.26 238.345 176.629Q238.708 176.998 239.053 177.384Q239.397 177.771 239.722 178.174Q240.047 178.577 240.352 178.996Q240.656 179.415 240.939 179.849C244.202 184.864 244.966 191.36 243.673 197.156C242.528 202.29 238.909 207.064 234.462 209.817C229.72 212.754 223.532 213.761 218.107 212.464C211.985 211.001 207.309 206.766 204.058 201.522L177.505 201.512C177.686 205.352 178.109 214.118 177.528 217.532C177.419 218.174 177.382 218.357 176.766 218.707C174.481 220.006 163.333 220.008 160.815 219.047C159.393 217.098 159.976 212.821 159.998 210.458L159.878 201.596C157.671 201.704 155.415 201.581 153.203 201.554C153.237 206.184 153.788 213.913 152.813 218.226C152.725 218.616 152.711 219.09 152.321 219.283C150.979 219.948 137.613 219.654 136.121 219.053C134.314 216.202 135.022 188.7 135.517 184.167C143.114 183.79 150.825 184.044 158.435 184.046L202.703 184.006C203.793 182.096 204.89 180.167 206.259 178.441C210.666 172.886 215.833 171.145 222.661 170.339Z"/>
	<path fill="#EDD666" transform="scale(3.625 3.62478)" d="M221.271 175.326Q222.594 175.206 223.92 175.286Q225.246 175.365 226.545 175.643Q227.349 175.824 228.132 176.083Q228.915 176.343 229.669 176.678Q230.422 177.012 231.139 177.42Q231.856 177.827 232.53 178.302Q233.204 178.778 233.827 179.317Q234.451 179.857 235.019 180.455Q235.587 181.053 236.093 181.704Q236.599 182.355 237.039 183.052Q237.468 183.722 237.828 184.432Q238.189 185.142 238.477 185.884Q238.764 186.626 238.977 187.393Q239.189 188.161 239.325 188.945Q239.46 189.729 239.516 190.523Q239.572 191.317 239.549 192.113Q239.526 192.909 239.424 193.698Q239.322 194.488 239.142 195.263Q238.943 196.088 238.662 196.888Q238.38 197.689 238.02 198.458Q237.66 199.226 237.225 199.954Q236.79 200.683 236.283 201.364Q235.777 202.045 235.205 202.672Q234.633 203.299 234.001 203.865Q233.369 204.431 232.683 204.931Q231.997 205.431 231.265 205.86Q230.568 206.272 229.834 206.612Q229.1 206.952 228.336 207.218Q227.571 207.483 226.784 207.671Q225.997 207.859 225.195 207.967Q224.393 208.076 223.584 208.104Q222.776 208.132 221.968 208.08Q221.161 208.027 220.362 207.894Q219.564 207.762 218.783 207.55C212.975 205.94 209.955 201.867 207.121 196.87C198.671 196.191 187.702 196.692 179.014 196.735C178.033 196.739 173.872 196.771 173.298 197.55C172.062 199.226 172.744 211.972 172.765 214.771L164.788 214.748C164.71 210.42 164.761 206.082 164.754 201.752C164.756 200.908 164.762 200.06 164.726 199.216C164.683 198.227 164.524 197.767 163.798 197.104C160.112 196.253 152.304 196.144 148.778 197.586C147.755 198.777 148.288 212.46 148.258 214.776L140.235 214.758C140.144 206.098 140.228 197.429 140.229 188.768L183.061 188.736C190.869 188.743 198.712 188.901 206.516 188.665C207.586 186.484 208.384 184.28 209.775 182.261C212.613 178.14 216.433 176.192 221.271 175.326Z"/>
	<path fill="#E7C061" transform="scale(3.625 3.62478)" d="M221.808 183.252C223.239 183.151 224.654 183.058 226.051 183.478Q226.445 183.598 226.825 183.759Q227.204 183.919 227.565 184.118Q227.926 184.317 228.264 184.553Q228.603 184.788 228.915 185.057Q229.227 185.326 229.51 185.625Q229.792 185.925 230.043 186.253Q230.293 186.58 230.508 186.932Q230.723 187.283 230.9 187.655Q231.075 188.025 231.21 188.412Q231.346 188.798 231.44 189.196Q231.535 189.595 231.588 190.001Q231.641 190.406 231.652 190.816Q231.663 191.225 231.632 191.633Q231.6 192.041 231.527 192.444Q231.453 192.847 231.339 193.24Q231.224 193.633 231.069 194.012C230.052 196.435 228.166 197.745 225.82 198.691C224.199 198.798 222.606 198.96 221.044 198.39Q220.664 198.254 220.301 198.08Q219.938 197.905 219.594 197.694Q219.251 197.483 218.931 197.237Q218.612 196.991 218.319 196.714Q218.027 196.436 217.765 196.13Q217.503 195.823 217.274 195.491Q217.046 195.16 216.852 194.806Q216.659 194.452 216.504 194.08C215.68 192.118 215.661 189.762 216.529 187.811C217.595 185.414 219.464 184.185 221.808 183.252Z"/>
	<path fill="#1F1D1E" transform="scale(3.625 3.62478)" d="M279.961 157.055L375.722 157.06L406.458 157.04C412.306 157.019 418.248 156.747 424.082 157.075C425.805 157.172 427.369 157.256 428.772 158.384C429.921 159.309 430.641 160.413 430.921 161.867C431.871 166.81 431.194 176.445 431.191 181.843L431.185 222.412C431.186 229.865 430.796 237.579 431.424 244.997C440.012 244.778 448.657 244.98 457.253 244.958C463.033 244.944 470.292 244.226 475.863 245.324C477.076 245.563 478.435 246.287 479.331 247.133C481.495 249.178 481.859 251.672 481.904 254.49C482.138 269.093 481.868 283.736 481.852 298.344L481.869 377.721L481.882 425.356C481.883 433.175 482.341 441.314 481.788 449.09C481.642 451.129 481.128 454.009 479.608 455.465C478.135 456.875 476.256 457.634 474.256 457.907C469.015 458.62 463.077 458.047 457.751 458.044L422.877 458.022L290.589 458.053L250.549 458.061C243.7 458.077 236.422 458.603 229.626 457.972C227.107 457.738 225.861 457.428 224.003 455.514C221.746 453.187 221.404 450.889 221.392 447.789L221.301 312.573L221.252 273.309C221.238 266.388 220.699 259.039 221.526 252.177C221.758 250.245 222.668 248.762 224.061 247.427C225.631 245.923 227.589 245.479 229.677 245.198C234.623 244.532 240.24 245.04 245.253 245.064Q259.487 245.145 273.721 245.058C273.547 239.64 273.86 234.194 273.911 228.773L273.987 200.559L273.947 177.098C273.921 172.697 273.684 168.171 273.953 163.785C274.05 162.206 274.158 160.648 275.21 159.376C276.422 157.913 278.129 157.275 279.961 157.055ZM302.775 185.792L302.854 225.173C302.857 231.755 302.62 238.438 302.964 245.006C312.41 245.206 398.439 245.646 400.606 244.852C400.64 244.67 400.743 244.322 400.72 244.144L400.745 207.208C400.751 200.167 400.563 193.088 400.773 186.053C391.593 185.396 382.189 185.781 372.982 185.771L324.991 185.741C317.676 185.755 310.048 186.333 302.775 185.792Z"/>
	<path fill="#ADACAD" transform="scale(3.625 3.62478)" d="M279.747 162.053C290.523 161.768 301.346 161.973 312.127 161.973L371.275 161.978L407.201 161.984C412.689 161.985 418.561 161.563 424.014 162.001C424.948 162.077 425.536 162.22 426.24 162.873C427.535 167.432 426.78 183.293 426.78 189.169L426.787 244.764L405.744 244.785C405.413 230.045 405.709 215.234 405.707 200.486C405.725 197.223 406.412 184.285 405.069 182.058C404.783 181.582 404.496 181.621 403.983 181.528C400.279 180.858 395.955 181.238 392.171 181.238L369.973 181.254L321.416 181.27C314.639 181.271 307.816 181.081 301.044 181.205C300.031 181.224 299.311 181.363 298.483 181.962C297.359 186.163 298.023 197.232 298.023 202.007L298.044 244.772L278.471 244.785L278.466 192.305L278.457 174.81C278.457 171.517 278.287 168.122 278.595 164.847C278.709 163.631 278.966 162.982 279.747 162.053Z"/>
	<path fill="#1F1D1E" transform="scale(3.625 3.62478)" d="M340.133 224.187C342.341 224.259 344.556 224.246 346.765 224.265L346.721 228.902C344.571 229.086 342.295 228.899 340.133 228.863L340.133 224.187Z"/>
	<path fill="#1F1D1E" transform="scale(3.625 3.62478)" d="M327.016 224.169C329.272 224.278 331.541 224.234 333.8 224.237L333.706 228.967L327.192 228.843L327.016 224.169Z"/>
	<path fill="#EDD666" transform="scale(3.625 3.62478)" d="M229.516 250.002C235.845 249.722 242.275 249.94 248.616 249.941L284.204 249.944L392.81 249.948L446.881 249.951C455.073 249.951 468.274 249.104 475.92 250.751C476.863 252.013 477.086 253.78 477.221 255.319C477.624 259.892 477.301 264.711 477.296 269.315L477.257 297.033L429.731 297.059L429.749 302.211C445.56 302.523 461.433 302.237 477.25 302.251L477.258 348.987L429.732 349.039L429.751 354.247C445.576 354.442 461.424 354.269 477.252 354.287L477.25 401.042L429.732 401.077L429.751 406.214L477.257 406.247C477.265 412.439 477.971 448.43 476.833 451.108C476.334 452.284 475.182 452.895 474.093 453.413C464.062 453.95 453.808 453.544 443.753 453.54L387.92 453.533L231.839 453.527C230.619 453.519 228.534 453.517 227.645 452.521C226.851 451.632 226.661 449.407 226.564 448.216C226.175 443.471 226.463 438.526 226.465 433.753L226.482 406.23L273.954 406.24L274.001 401.045L226.493 401.015L226.486 354.276L273.946 354.278L274.004 349.005L226.495 348.979L226.487 302.236L273.95 302.254L274.003 297.039L226.496 297.018C226.496 291.13 225.838 254.669 226.821 252.277C227.296 251.12 228.462 250.522 229.516 250.002Z"/>
	<path fill="#E7C061" transform="scale(3.625 3.62478)" d="M387.138 314.356C393.016 317.054 399.321 328.505 401.572 334.578Q402.031 335.817 402.429 337.077Q402.827 338.337 403.163 339.615Q403.498 340.893 403.771 342.186Q404.043 343.479 404.252 344.784Q404.461 346.088 404.605 347.402Q404.75 348.715 404.83 350.034Q404.909 351.353 404.924 352.674Q404.94 353.995 404.89 355.316Q404.84 356.636 404.726 357.952Q404.611 359.269 404.432 360.578Q404.253 361.887 404.01 363.186Q403.768 364.485 403.461 365.77Q403.155 367.055 402.786 368.324Q402.417 369.593 401.986 370.842Q401.555 372.091 401.064 373.318Q400.572 374.544 400.021 375.745C394.546 387.505 384.127 398.103 371.775 402.563C370.616 402.981 369.162 403.243 368.273 404.104L368.254 356.152C373.697 352.996 378.351 349.351 381.927 344.101C388.161 334.948 389.143 324.987 387.138 314.356Z"/>
	<path fill="#E7C061" transform="scale(3.625 3.62478)" d="M337.019 404.065C334.774 403.964 332.474 402.918 330.44 402.019Q329.243 401.489 328.074 400.9Q326.905 400.312 325.766 399.667Q324.627 399.023 323.52 398.323Q322.414 397.623 321.343 396.87Q320.273 396.118 319.24 395.313Q318.207 394.509 317.215 393.655Q316.223 392.802 315.274 391.9Q314.325 390.999 313.421 390.053Q312.517 389.106 311.66 388.117Q310.803 387.127 309.996 386.097Q309.189 385.067 308.433 383.998Q307.677 382.93 306.974 381.826Q306.271 380.722 305.623 379.585Q304.975 378.447 304.383 377.28Q303.792 376.112 303.258 374.918Q302.724 373.723 302.249 372.503Q301.78 371.281 301.372 370.038Q300.964 368.795 300.617 367.533Q300.271 366.271 299.986 364.994Q299.702 363.717 299.48 362.427Q299.259 361.138 299.101 359.839Q298.942 358.54 298.848 357.235Q298.754 355.93 298.723 354.621Q298.693 353.313 298.727 352.005Q298.761 350.697 298.859 349.392Q298.957 348.088 299.118 346.789Q299.28 345.491 299.505 344.202Q299.73 342.913 300.018 341.636Q300.306 340.36 300.656 339.099Q301.006 337.838 301.418 336.596Q301.829 335.354 302.301 334.133Q302.773 332.913 303.304 331.717C305.46 326.863 311.52 316.226 316.617 314.257C314.428 324.535 315.495 334.385 321.268 343.357Q321.985 344.457 322.779 345.503Q323.573 346.55 324.439 347.537Q325.305 348.525 326.239 349.448Q327.174 350.371 328.171 351.226Q329.168 352.081 330.224 352.863Q331.279 353.645 332.387 354.349Q333.496 355.054 334.651 355.679Q335.807 356.303 337.004 356.844L337.019 404.065Z"/>
	<path fill="#1F1D1E" transform="scale(3.625 3.62478)" d="M316.617 314.257C319.498 304.49 325.363 296.459 334.413 291.559Q335.208 291.135 336.022 290.75Q336.837 290.365 337.669 290.02Q338.501 289.674 339.349 289.37Q340.197 289.066 341.059 288.803Q341.921 288.54 342.794 288.32Q343.668 288.099 344.551 287.921Q345.434 287.743 346.325 287.608Q347.216 287.473 348.112 287.381Q349.008 287.289 349.908 287.241Q350.808 287.193 351.709 287.189Q352.609 287.185 353.51 287.224Q354.41 287.264 355.307 287.347Q356.204 287.43 357.096 287.556Q357.988 287.683 358.873 287.852Q359.758 288.022 360.633 288.234Q361.509 288.446 362.373 288.701Q363.225 288.957 364.063 289.254Q364.902 289.551 365.725 289.89Q366.547 290.228 367.352 290.606Q368.158 290.984 368.943 291.401Q369.729 291.819 370.493 292.274Q371.257 292.729 371.998 293.222Q372.739 293.714 373.454 294.242Q374.17 294.77 374.859 295.333Q375.548 295.896 376.208 296.492Q376.869 297.087 377.499 297.715Q378.129 298.343 378.728 299Q379.327 299.658 379.892 300.345Q380.458 301.031 380.989 301.745Q381.52 302.458 382.016 303.197Q382.511 303.935 382.97 304.697Q383.428 305.459 383.849 306.243C385.241 308.835 386.283 311.547 387.138 314.356C389.143 324.987 388.161 334.948 381.927 344.101C378.351 349.351 373.697 352.996 368.254 356.152L368.273 404.104C368.333 407.46 368.991 412.534 366.615 415.22C364.866 417.196 361.689 417.763 359.177 417.813C354.04 417.915 342.409 419.012 338.727 415.241C336.364 412.821 337.003 407.235 337.019 404.065L337.004 356.844Q335.807 356.303 334.651 355.679Q333.496 355.054 332.387 354.349Q331.279 353.645 330.224 352.863Q329.168 352.081 328.171 351.226Q327.174 350.371 326.239 349.448Q325.305 348.525 324.439 347.537Q323.573 346.55 322.779 345.503Q321.985 344.457 321.268 343.357C315.495 334.385 314.428 324.535 316.617 314.257Z"/>
	<path fill="#DEE8E8" transform="scale(3.625 3.62478)" d="M350.009 292.111C356.223 291.472 363.266 293.557 368.511 296.833Q369.172 297.248 369.811 297.694Q370.45 298.141 371.067 298.619Q371.683 299.096 372.276 299.604Q372.868 300.111 373.435 300.647Q374.002 301.182 374.541 301.745Q375.081 302.308 375.592 302.897Q376.104 303.486 376.586 304.099Q377.068 304.712 377.519 305.348Q377.97 305.985 378.389 306.642Q378.808 307.3 379.195 307.977Q379.581 308.654 379.934 309.35Q380.287 310.045 380.605 310.757Q380.923 311.469 381.206 312.196Q381.489 312.923 381.735 313.663Q381.982 314.403 382.192 315.154Q382.402 315.905 382.575 316.665C384.799 326.639 381.865 338.7 374.21 345.759C371.44 348.314 368.168 349.859 365.312 352.186C364.355 352.965 363.341 354.082 363.129 355.348C362.7 357.909 363.174 365.236 363.176 368.323C363.185 381.868 363.644 395.573 363.178 409.103C363.145 410.077 363.212 411.335 362.68 412.172C360.206 413.54 356.217 413.038 353.432 413.02C350.515 413.052 344.85 413.802 342.489 412.188C341.33 408.288 341.994 401.095 341.993 396.909L342.005 370.347C342.009 364.863 342.232 359.279 341.773 353.812C338.163 351.652 334.473 350.091 331.192 347.346C324.944 342.117 321.113 334.154 320.403 326.097C319.682 317.91 322.513 309.435 327.845 303.21C333.579 296.514 341.273 292.829 350.009 292.111Z"/>
	<path fill="#ADACAD" transform="scale(3.625 3.62478)" d="M350.225 307.921C353.752 307.751 356.713 307.952 359.814 309.813C363.211 311.85 365.901 315.248 366.806 319.131Q366.97 319.835 367.064 320.551Q367.158 321.268 367.18 321.99Q367.202 322.712 367.152 323.433Q367.102 324.154 366.981 324.867Q366.859 325.579 366.668 326.276Q366.476 326.973 366.216 327.647Q365.956 328.321 365.631 328.966Q365.305 329.611 364.917 330.221C362.313 334.314 358.357 336.401 353.715 337.387C353.392 337.501 353.298 337.544 352.995 337.62C351.021 338.113 347.59 336.811 345.884 335.813C340.696 332.776 338.617 328.312 337.179 322.728C338.354 319.66 338.63 316.822 340.589 314.038Q341.009 313.438 341.487 312.882Q341.964 312.326 342.494 311.82Q343.023 311.314 343.6 310.862Q344.177 310.41 344.796 310.018Q345.415 309.625 346.069 309.295Q346.723 308.965 347.407 308.701Q348.09 308.437 348.797 308.241Q349.503 308.046 350.225 307.921Z"/>
	<path fill="#1F1D1E" transform="scale(3.625 3.62478)" d="M341.767 318.016L362.973 317.984L362.935 323.281L355.377 323.27C354.517 324.148 354.963 328.911 354.971 330.261L350.029 330.265L350 323.294L341.756 323.252L341.767 318.016Z"/>
</svg>
